<svg viewBox="0 0 643.66 376.59" xmlns="http://www.w3.org/2000/svg"><path d="m643.03 209.87c.21-.05.43-.1.64-.15l-49.78-195.34c-.21.06-.42.12-.63.18-10.96 2.79-22.1-3.71-25.11-14.55l-94.03 23.96c2.55 10.96-4.12 22-15.08 24.8-10.96 2.79-22.1-3.71-25.11-14.55l-418.91 106.72c2.54 10.94-4.1 21.96-15.02 24.78l49.77 195.32c11.09-2.79 22.35 3.91 25.17 15 .05.19.09.37.13.56l418.9-106.74c-.05-.18-.11-.36-.16-.55-2.83-11.11 3.88-22.4 14.98-25.23 11.11-2.83 22.4 3.88 25.23 14.98.05.19.09.37.13.56l94.04-23.96c-.05-.18-.11-.36-.16-.55-2.83-11.11 3.88-22.4 14.98-25.23z" fill="#e1fe60"/><path d="m509.52 241.29-.9.23-2.12-8.34.9-.23zm-4.25-16.67-.9.23-2.12-8.34.9-.23zm-4.25-16.67-.9.23-2.12-8.34.9-.23zm-4.25-16.67-.9.23-2.12-8.34.9-.23zm-4.25-16.67-.9.23-2.12-8.34.9-.23zm-4.25-16.67-.9.23-2.12-8.34.9-.23zm-4.25-16.67-.9.23-2.12-8.34.9-.23zm-4.25-16.67-.9.23-2.12-8.34.9-.23zm-4.25-16.67-.9.23-2.12-8.34.9-.23zm-4.25-16.67-.9.23-2.12-8.34.9-.23zm-4.25-16.67-.9.23-2.12-8.34.9-.23z m-4.25-16.67-.9.23-2.12-8.34.9-.23z" fill="#0f0f0f"/><g fill="#181617"><path d="m74.16 218.22-10.42 2.65-.76-18.98-7.52 1.92-.29-7.12 25.46-6.49.29 7.12-7.52 1.92z"/><path d="m101.54 194.23-.38-9.26 10.42-2.65 1.05 26.1-10.42 2.65-.39-9.75-7.79 1.98.39 9.75-10.42 2.65-1.05-26.1 10.42-2.65.38 9.26z"/><path d="m140.42 201.34-23.66 6.03-1.05-26.1 23.33-5.94.27 6.91-12.91 3.29.14 3.19 11.65-2.97.22 5.58-11.65 2.97.12 3.52 13.25-3.38.31 6.9z"/><path d="m165.45 194.96-9.12 2.32-1.05-26.1 11.42-2.91 6.18 11.61.35.97.07-.02.28-1.13 5.03-14.47 11.52-2.93 1.05 26.1-9.12 2.32-.54-13.65.02-1.6-.07.02-.34 1.29-4.23 11.92-6.56 1.67-5.09-9.55-.46-1.09h-.03s.12 1.58.12 1.58l.57 13.64z"/><path d="m209.65 184.41c-4.9 1.25-8.77 1.11-11.59-.41s-4.31-4.43-4.45-8.72l-.07-1.37c-.15-4.29 1-7.84 3.45-10.66s6.12-4.86 11.03-6.11c4.95-1.26 8.81-1.1 11.58.47 2.78 1.57 4.23 4.49 4.38 8.75l.06 1.22c.25 8.7-4.54 14.31-14.39 16.82zm-.63-7.64c3.08-.79 4.58-2.85 4.48-6.21l-.07-1.79c-.05-1.76-.5-2.96-1.37-3.58-.87-.63-2.06-.75-3.57-.37-3.06.78-4.54 2.81-4.44 6.09l.08 2c.06 1.71.53 2.87 1.42 3.48s2.04.74 3.46.38z"/><path d="m241.23 176.36c-5.21 1.33-8.93 1.28-11.15-.15s-3.41-4.29-3.58-8.57l-.6-14.45 10.42-2.66.58 14.95c.12 2.78 1.46 3.84 4.04 3.19 2.55-.65 3.77-2.35 3.66-5.11l-.63-14.97 10.42-2.65.58 14.52c.18 4.23-.75 7.6-2.77 10.12-2.03 2.51-5.69 4.44-10.97 5.79z"/><path d="m271.52 168.64c-4.42 1.12-7.82 1.13-10.22.02s-3.67-3.07-3.82-5.87l-.02-.21 9.62-2.45.02.21c.09.92.43 1.56 1.02 1.9.58.35 1.54.35 2.87.01 2.08-.53 3.12-1.39 3.1-2.56v-.25c-.03-.61-.36-.99-.98-1.15s-1.93-.19-3.94-.08c-2.29.28-4.21.35-5.74.22s-2.7-.44-3.5-.93-1.39-1.14-1.77-1.94-.57-1.73-.55-2.8l-.02-.35c-.09-2.29.81-4.42 2.7-6.38s4.97-3.48 9.25-4.57c4.33-1.1 7.58-1.1 9.75.01s3.39 3.07 3.65 5.86v.14l-9.22 2.35v-.14c-.12-.82-.44-1.41-.97-1.77s-1.38-.39-2.56-.09c-1.91.49-2.83 1.27-2.77 2.34l.03.24c.04.44.29.75.74.95.45.19 1.32.23 2.62.11 2.15-.26 4.01-.38 5.58-.36 1.57.03 2.82.18 3.77.47s1.71.68 2.28 1.17.96 1.08 1.15 1.78.32 1.46.39 2.29l.02.35c.11 2.67-.88 4.97-2.97 6.92s-5.27 3.47-9.53 4.55z"/><path d="m310.86 157.91-23.66 6.03-1.05-26.1 23.33-5.94.27 6.91-12.91 3.29.14 3.19 11.65-2.97.22 5.58-11.65 2.97.12 3.52 13.25-3.38.31 6.9z"/><path d="m317.68 156.88c-1.73.44-3.01.48-3.85.11s-1.27-1.17-1.31-2.41c-.14-2.4 1.48-4.03 4.85-4.89 1.75-.45 3.04-.48 3.86-.1s1.25 1.19 1.31 2.43-.3 2.25-1.07 3.02-2.03 1.39-3.79 1.83z"/></g><g fill="#0f0f0f"><path d="m71.6 254.26c-.93-.05-1.75-.24-2.46-.57l.35-1.9c.74.31 1.47.49 2.21.54.74.04 1.51-.04 2.3-.24.88-.22 1.52-.55 1.92-.98s.53-.92.39-1.48c-.12-.48-.44-.8-.94-.94-.51-.14-1.3-.2-2.39-.16-1.12.04-2.05 0-2.8-.14s-1.34-.39-1.8-.78-.78-.94-.96-1.67c-.19-.75-.16-1.47.1-2.17s.72-1.31 1.39-1.83c.66-.52 1.49-.91 2.47-1.16.89-.23 1.78-.31 2.66-.24s1.64.27 2.28.61l-.35 1.9c-1.37-.62-2.74-.75-4.12-.4-.82.21-1.43.54-1.82 1-.39.45-.51.98-.36 1.57.12.5.43.82.93.98.49.16 1.27.22 2.35.19 1.14-.03 2.08.01 2.83.14s1.36.37 1.83.74.8.9.98 1.6c.19.76.16 1.48-.1 2.16s-.73 1.27-1.42 1.77-1.55.89-2.59 1.15c-.98.25-1.93.35-2.86.3z"/><path d="m84 250.66c-1.07-.3-1.99-.88-2.74-1.74s-1.3-1.96-1.63-3.27-.38-2.53-.13-3.65c.25-1.11.78-2.06 1.58-2.83.8-.78 1.83-1.33 3.09-1.65.86-.22 1.7-.29 2.53-.22s1.57.28 2.21.63l-.34 1.9c-.7-.31-1.36-.5-1.98-.57s-1.25-.02-1.89.14c-1.23.31-2.08.96-2.55 1.93s-.51 2.2-.13 3.7c.39 1.51 1.02 2.58 1.89 3.21.88.63 1.93.78 3.16.47.64-.16 1.22-.42 1.73-.78s1-.84 1.47-1.44l1.21 1.5c-.4.62-.94 1.15-1.63 1.61s-1.47.8-2.33 1.02c-1.26.32-2.42.33-3.5.03z"/><path d="m104.66 246.08-2.54.65-3.23-3.52c-.3-.33-.63-.54-.97-.62s-.74-.06-1.2.06l-1.78.45 1.31 5.13-2.3.59-3.26-12.78 5.66-1.44c1.45-.37 2.64-.33 3.56.13s1.54 1.29 1.85 2.51c.25.98.18 1.86-.21 2.63s-1.06 1.39-2.01 1.84c.72 0 1.39.35 2 1.02l3.14 3.37zm-5.34-6.55c.33-.44.4-1 .23-1.69-.18-.7-.51-1.16-1.01-1.38-.49-.22-1.18-.21-2.06.01l-3.05.78 1.03 4.04 3.05-.78c.88-.22 1.49-.55 1.81-.99z"/><path d="m106.55 245.6-3.26-12.78 8.56-2.18.47 1.85-6.27 1.6.9 3.52 5.91-1.51.47 1.83-5.91 1.51.95 3.73 6.27-1.6.47 1.85z"/><path d="m117.23 242.88-3.26-12.78 8.56-2.18.47 1.85-6.28 1.6.9 3.52 5.91-1.51.47 1.83-5.91 1.51.95 3.74 6.27-1.6.47 1.85-8.56 2.18z"/><path d="m133.25 225.18 2.19-.56 3.26 12.78-1.76.45-9.13-7.18 2.27 8.92-2.18.55-3.26-12.78 1.74-.44 9.12 7.16-2.27-8.9z"/><path d="m151.69 232.09 2.78-.71.48 1.89-7.89 2.01-.48-1.89 2.77-.71-2.1-8.23-1.86 1.88-1.36-1.47 3.21-3.25 1.67-.43 2.78 10.9z"/><path d="m97.85 319.02-1.5-1.95-4.54 1.16-.38 2.43-1.72.44 1.85-10.42 1.39-.35 6.61 8.26-1.7.43zm-5.82-2.25 3.42-.87-2.72-3.54z"/><path d="m101.75 308.08 4.08-1.04c1-.25 1.84-.2 2.52.16s1.14.99 1.37 1.89.13 1.67-.3 2.32-1.14 1.1-2.14 1.35l-2.37.6.92 3.63-1.71.44-2.38-9.34zm4.99 3.42c1.17-.3 1.63-.96 1.37-1.99-.13-.52-.38-.87-.73-1.05s-.83-.19-1.42-.04l-2.16.55.78 3.07 2.16-.55z"/><path d="m120.7 313.2-1.85.47-2.36-2.57c-.22-.24-.46-.4-.71-.45-.25-.06-.54-.04-.88.04l-1.3.33.96 3.75-1.68.43-2.38-9.34 4.13-1.05c1.06-.27 1.93-.24 2.6.09s1.12.94 1.35 1.84c.18.72.13 1.36-.15 1.92-.28.57-.77 1.01-1.47 1.34.53 0 1.01.25 1.46.74l2.29 2.46zm-3.9-4.78c.24-.32.29-.73.17-1.23-.13-.51-.38-.85-.74-1-.36-.16-.86-.15-1.51 0l-2.23.57.75 2.95 2.23-.57c.65-.16 1.09-.41 1.33-.73z"/><path d="m122.08 312.85-2.38-9.34 1.71-.44 2.38 9.34z"/><path d="m130.27 300.81 1.74-.44-1.78 10.4-1.39.35-6.54-8.28 1.76-.45 4.94 6.43z"/><path d="m141.52 307.9-1.5-1.95-4.54 1.16-.38 2.43-1.72.44 1.85-10.42 1.39-.35 6.61 8.26-1.7.43zm-5.82-2.25 3.42-.87-2.72-3.54z"/><path d="m145.26 306.94-2.02-7.94-3.05.78-.36-1.41 7.8-1.99.36 1.41-3.05.78 2.02 7.94-1.71.44z"/><path d="m151.18 305.44-2.38-9.34 6.25-1.59.34 1.35-4.58 1.17.66 2.57 4.32-1.1.34 1.34-4.32 1.1.7 2.73 4.58-1.17.34 1.35z"/><path d="m163.68 302.07c-.68-.03-1.28-.17-1.8-.42l.25-1.39c.54.23 1.08.36 1.62.39s1.1-.03 1.68-.17c.64-.16 1.11-.4 1.4-.72s.39-.68.28-1.08c-.09-.35-.32-.58-.69-.69s-.95-.14-1.75-.12c-.82.03-1.5 0-2.04-.1s-.98-.29-1.32-.57c-.33-.28-.57-.69-.71-1.22-.14-.55-.11-1.08.08-1.58.19-.51.53-.96 1.01-1.34.49-.38 1.09-.67 1.8-.85.65-.17 1.3-.23 1.94-.18s1.2.2 1.67.44l-.25 1.39c-1-.45-2-.55-3.01-.29-.6.15-1.04.4-1.33.73s-.38.71-.27 1.15c.09.36.32.6.68.72s.93.16 1.71.14c.83-.02 1.52 0 2.06.1.55.09.99.27 1.34.54s.58.66.71 1.17c.14.56.12 1.08-.07 1.58-.19.49-.54.93-1.04 1.29-.5.37-1.13.65-1.89.84-.71.18-1.41.26-2.09.22z"/><path d="m172.74 299.44c-.78-.22-1.45-.64-2-1.27s-.95-1.43-1.19-2.39c-.25-.96-.28-1.85-.09-2.67.18-.81.57-1.5 1.15-2.07s1.34-.97 2.25-1.2c.63-.16 1.24-.21 1.85-.16s1.14.21 1.61.46l-.25 1.39c-.51-.23-.99-.37-1.45-.41-.45-.05-.92-.01-1.38.11-.9.23-1.52.7-1.86 1.41s-.37 1.61-.09 2.71.74 1.88 1.38 2.34 1.41.57 2.31.34c.47-.12.89-.31 1.27-.57s.73-.61 1.07-1.06l.89 1.1c-.29.45-.69.84-1.2 1.18s-1.07.58-1.7.74c-.92.23-1.77.24-2.55.02z"/><path d="m187.84 296.09-1.85.47-2.36-2.57c-.22-.24-.46-.4-.71-.45s-.54-.04-.88.04l-1.3.33.96 3.75-1.68.43-2.38-9.34 4.13-1.05c1.06-.27 1.93-.24 2.6.09s1.12.94 1.35 1.84c.18.72.13 1.36-.15 1.92-.28.57-.77 1.01-1.47 1.34.53 0 1.01.25 1.46.74l2.29 2.46zm-3.9-4.79c.24-.32.29-.73.17-1.23-.13-.51-.38-.85-.74-1-.36-.16-.86-.15-1.51 0l-2.23.57.75 2.95 2.23-.57c.64-.16 1.09-.41 1.33-.73z"/><path d="m189.22 295.74-2.38-9.34 6.25-1.59.35 1.35-4.58 1.17.66 2.57 4.32-1.1.34 1.34-4.32 1.1.7 2.73 4.58-1.17.34 1.35-6.25 1.59z"/><path d="m197.02 293.75-2.38-9.34 6.25-1.59.34 1.35-4.58 1.17.66 2.57 4.32-1.1.34 1.34-4.32 1.1.7 2.73 4.58-1.17.34 1.35z"/><path d="m208.72 280.82 1.6-.41 2.38 9.34-1.29.33-6.67-5.24 1.66 6.52-1.59.41-2.38-9.34 1.27-.32 6.67 5.23-1.66-6.51z"/><path d="m214.72 289.24-2.38-9.34 1.71-.44 2.38 9.34z"/><path d="m222.34 277.35 1.6-.41 2.38 9.34-1.29.33-6.67-5.24 1.66 6.52-1.59.41-2.38-9.34 1.27-.32 6.67 5.23-1.66-6.51z"/><path d="m234.84 278.74 1.14 4.48c-.37.32-.84.62-1.42.9-.57.28-1.17.5-1.8.66-.96.25-1.85.27-2.65.06s-1.49-.62-2.04-1.24c-.56-.62-.96-1.43-1.22-2.42-.25-.98-.28-1.88-.09-2.69.19-.82.59-1.5 1.18-2.07.59-.56 1.36-.96 2.3-1.2.65-.17 1.29-.23 1.91-.18.62.04 1.17.19 1.64.45l-.26 1.38c-.52-.23-1.01-.36-1.46-.4-.46-.04-.94 0-1.44.13-.96.25-1.62.72-1.96 1.41s-.37 1.6-.09 2.72c.59 2.3 1.88 3.19 3.9 2.67.6-.15 1.18-.39 1.74-.71l-.6-2.34-2.01.51-.31-1.22z"/><path d="m503.72 105.18-1.5-1.95-4.54 1.16-.38 2.42-1.72.44 1.85-10.42 1.39-.35 6.61 8.26-1.7.43zm-5.82-2.25 3.42-.87-2.72-3.54z"/><path d="m504.03 95.15 3.45-.88c1.53-.39 2.82-.28 3.87.32s1.77 1.64 2.14 3.12c.38 1.48.25 2.73-.39 3.77-.63 1.04-1.71 1.75-3.24 2.14l-3.44.88-2.38-9.34zm5.37 7.1c2.15-.55 2.94-1.92 2.38-4.11-.56-2.18-1.91-3-4.05-2.45l-1.63.42 1.67 6.56z"/><path d="m521.8 90.62 1.34-.34 2.38 9.34-1.51.38-1.57-6.17-1.28 5.29-1.14.29-3.65-3.97 1.57 6.1-1.51.38-2.38-9.34 1.35-.34 4.76 5.29 1.64-6.92z"/><path d="m527.55 99.11-2.38-9.34 1.71-.44 2.38 9.34z"/><path d="m533.47 97.6-2.02-7.94-3.05.78-.36-1.41 7.8-1.99.36 1.41-3.05.78 2.02 7.94-1.71.44z"/><path d="m540.21 95.7c-.68-.03-1.28-.17-1.8-.42l.25-1.39c.54.23 1.08.36 1.62.39s1.1-.03 1.68-.17c.64-.16 1.11-.4 1.4-.72.29-.31.38-.67.28-1.08-.09-.35-.32-.58-.69-.68s-.95-.14-1.74-.12c-.82.03-1.5 0-2.04-.1s-.98-.29-1.32-.57c-.33-.28-.57-.69-.71-1.22-.14-.55-.11-1.08.08-1.59s.53-.96 1.01-1.34c.49-.38 1.09-.67 1.8-.85.65-.17 1.3-.23 1.94-.18s1.2.2 1.67.44l-.25 1.39c-1-.45-2-.55-3.01-.29-.6.15-1.04.4-1.33.73s-.38.71-.26 1.15c.09.36.32.6.68.72.36.11.93.16 1.71.14.83-.02 1.52 0 2.06.1s.99.27 1.34.54.58.66.71 1.17c.14.56.12 1.08-.07 1.58-.19.49-.54.93-1.04 1.29-.5.37-1.13.65-1.89.84-.72.18-1.41.26-2.09.22z"/><path d="m555.03 90.63 2.03-.52.35 1.38-5.76 1.47-.35-1.38 2.03-.52-1.53-6.01-1.36 1.38-.99-1.07 2.34-2.38 1.22-.31 2.03 7.96z"/><path d="m525.55 206.43-1.62-6.36-2.44.62-.29-1.12 6.25-1.59.29 1.12-2.44.62 1.62 6.36z"/><path d="m530.3 205.22-1.91-7.48 1.37-.35 1.91 7.48z"/><path d="m534.65 203.71c-.63-.18-1.16-.52-1.61-1.02-.44-.5-.76-1.14-.96-1.92-.2-.77-.22-1.48-.07-2.13s.45-1.2.92-1.66c.47-.45 1.07-.78 1.81-.96.5-.13 1-.17 1.48-.13.49.04.92.17 1.29.37l-.2 1.12c-.41-.18-.79-.29-1.16-.33s-.73-.01-1.11.08c-.72.18-1.22.56-1.49 1.13s-.3 1.29-.08 2.17c.23.88.59 1.51 1.11 1.88s1.13.46 1.85.27c.38-.09.71-.25 1.01-.46s.59-.49.86-.85l.71.88c-.23.36-.55.68-.96.94-.41.27-.86.47-1.36.6-.74.19-1.42.19-2.05.02z"/><path d="m546.98 200.97-1.67.42-4.36-2.6.89 3.48-1.37.35-1.91-7.48 1.37-.35.85 3.34 2.48-4.19 1.63-.42-2.7 4.52 4.78 2.92z"/><path d="m547.48 200.84-1.91-7.48 5.01-1.28.28 1.08-3.67.94.52 2.06 3.46-.88.27 1.07-3.46.88.56 2.19 3.67-.94.28 1.08z"/><path d="m555.5 198.8-1.62-6.36-2.44.62-.29-1.12 6.25-1.59.29 1.12-2.44.62 1.62 6.36z"/><path d="m563.25 195.88c-.63-.54-1.11-1.43-1.43-2.68-.32-1.24-.32-2.24-.02-3.01s.89-1.27 1.78-1.49c.88-.23 1.64-.07 2.28.46s1.11 1.42 1.42 2.66c.32 1.25.33 2.26.03 3.03-.3.78-.89 1.28-1.78 1.5s-1.64.07-2.28-.46zm2.88-1.54c.11-.5.04-1.23-.21-2.19-.24-.95-.53-1.62-.86-2s-.74-.51-1.22-.38c-.48.12-.78.43-.88.92-.11.49-.04 1.21.2 2.17.25.96.53 1.64.87 2.02.33.39.74.52 1.22.4s.77-.43.88-.93z"/><path d="m573.22 190.88c.32.26.54.62.65 1.08.17.65.06 1.23-.32 1.73s-.98.85-1.8 1.06c-.5.13-1.01.17-1.51.14s-.94-.15-1.31-.34l.2-1.11c.78.35 1.55.43 2.29.24.47-.12.8-.3.99-.55s.23-.56.13-.94-.29-.62-.57-.74-.67-.12-1.17 0l-.99.25-.28-1.08.81-.21c.97-.25 1.36-.74 1.17-1.46-.09-.34-.26-.57-.51-.71-.25-.13-.57-.15-.96-.05-.33.08-.65.24-.96.45-.31.22-.59.5-.86.83l-.71-.88c.23-.34.55-.65.98-.93.42-.27.88-.47 1.36-.59.74-.19 1.37-.16 1.9.09s.87.67 1.03 1.28c.1.42.08.81-.05 1.17s-.36.66-.7.88c.47 0 .86.13 1.18.38z"/><path d="m497.13 84.89-2.02-7.94-3.05.78-.36-1.41 7.8-1.99.36 1.41-3.05.78 2.02 7.94-1.71.44z"/><path d="m507.14 72.4 1.67-.43 2.38 9.34-1.67.43-1.03-4.05-4.78 1.22 1.03 4.05-1.68.43-2.38-9.34 1.68-.43 1 3.91 4.78-1.22z"/><path d="m513.2 80.8-2.38-9.34 6.25-1.59.34 1.35-4.58 1.17.66 2.57 4.32-1.1.34 1.34-4.32 1.1.7 2.73 4.58-1.17.34 1.35z"/><path d="m529.99 66.57 1.34-.34 2.38 9.34-1.51.38-1.57-6.17-1.28 5.29-1.14.29-3.65-3.97 1.57 6.1-1.51.38-2.38-9.34 1.35-.34 4.76 5.29 1.64-6.92z"/><path d="m537.41 74.13c-.77-.22-1.42-.64-1.97-1.28-.55-.63-.94-1.43-1.19-2.41-.25-.97-.28-1.86-.11-2.67s.55-1.5 1.12-2.06 1.31-.96 2.22-1.19 1.75-.24 2.51-.02c.77.22 1.42.64 1.96 1.27s.94 1.43 1.18 2.4.28 1.87.11 2.68c-.18.82-.55 1.5-1.12 2.06s-1.3.95-2.2 1.18c-.91.23-1.75.24-2.51.02zm3.95-2.78c.33-.71.36-1.62.07-2.73s-.74-1.89-1.37-2.35-1.38-.59-2.23-.37c-.87.22-1.46.69-1.8 1.4s-.36 1.62-.08 2.72.74 1.89 1.37 2.36 1.38.59 2.25.37c.86-.22 1.45-.68 1.78-1.4z"/><path d="m546.78 71.31c-.83-.49-1.41-1.38-1.73-2.65l-1.42-5.57 1.67-.42 1.44 5.66c.21.8.55 1.36 1.03 1.68s1.09.38 1.83.19c.72-.18 1.22-.53 1.5-1.04.27-.51.31-1.16.11-1.96l-1.44-5.66 1.67-.43 1.42 5.57c.32 1.26.24 2.31-.26 3.15-.49.84-1.38 1.42-2.65 1.74-1.28.33-2.34.24-3.17-.25z"/><path d="m556.88 69.48c-.68-.04-1.28-.17-1.8-.42l.25-1.39c.54.23 1.08.36 1.62.39s1.1-.03 1.68-.17c.64-.16 1.11-.4 1.4-.72.29-.31.38-.67.28-1.08-.09-.35-.32-.58-.69-.68s-.95-.14-1.74-.12c-.82.03-1.5 0-2.04-.1s-.98-.29-1.32-.57-.57-.69-.71-1.22c-.14-.55-.11-1.08.08-1.59s.53-.96 1.01-1.34c.49-.38 1.09-.67 1.8-.85.65-.17 1.3-.23 1.94-.18s1.2.2 1.67.44l-.25 1.39c-1-.45-2-.55-3.01-.29-.6.15-1.04.39-1.33.73-.29.33-.38.71-.27 1.15.09.36.32.6.68.72.36.11.93.16 1.71.14.83-.02 1.52 0 2.06.1.55.09.99.27 1.34.54s.58.66.71 1.17c.14.56.12 1.08-.07 1.58s-.54.93-1.04 1.29c-.5.37-1.13.65-1.89.84-.71.18-1.41.26-2.09.22z"/><path d="m564.22 67.8-2.38-9.34 6.25-1.59.34 1.35-4.58 1.17.66 2.57 4.32-1.1.34 1.34-4.32 1.1.7 2.73 4.58-1.17.34 1.35z"/></g><path d="m81.38 294.71 372.62-94.94" fill="none" stroke="#0f0f0f" stroke-miterlimit="10" stroke-width=".57"/></svg>