<?xml version="1.0" encoding="UTF-8"?>
<svg id="Layer_1" xmlns="http://www.w3.org/2000/svg" version="1.1" viewBox="0 0 175.3 175.1">
  <!-- Generator: Adobe Illustrator 29.0.1, SVG Export Plug-In . SVG Version: 2.1.0 Build 192)  -->
  <defs>
    <style>
      .st0 {
        fill: #fff;
      }
    </style>
  </defs>
  <path d="M6.6,156c-.6,0-1.2-.3-1.6-.7-.4-.5-.5-1.1-.4-1.7L31.8,26.3c.2-.9,1-1.6,2-1.6h3.4c7.4,0,14.8,0,22.2,0,7.4,0,14.8,0,22.2,0,13.3,0,24.2,0,34.1.1,10.4,0,22.5.8,34,5.5,12.8,5.2,19.6,13.4,20.7,24.9,2,21.1-9.2,38.7-29.3,45.9-.4.2-.9.3-1.3.4,8,3.7,12.1,10.7,12.1,20.9,0,4.9,0,9.9-.1,14.7,0,3.6-.1,7.2-.1,10.8,0,1.1.2,2.3.3,3.7,0,.7.2,1.4.3,2.2,0,.6-.1,1.1-.5,1.6-.4.4-.9.7-1.5.7h-53.4c-1.1,0-1.9-.8-2-1.9,0-.8,0-1.6-.1-2.5-.1-1.9-.3-3.8-.2-5.8.1-4,.3-8,.5-11.9,0-1.3.1-2.6.2-3.9.3-6.2-2.1-9-8-9.3-2-.1-4.1-.2-6.9-.2s-2.3,0-3.4,0c-1.1,0-2.3,0-3.4,0h-3.9s-7.3,34-7.3,34c-.2.9-1,1.6-2,1.6H6.6ZM76.4,78.5c1.9,0,3.7,0,5.5.1,2.6,0,5.1.1,7.6.1,3.6,0,6.5-.1,9.2-.4,8.9-.8,12.4-4.4,14.1-14,.5-2.9.2-5.2-.9-6.6-1-1.3-2.8-2.1-5.3-2.3-6.8-.5-13.9-.5-20.7-.6h-3.7c-.2,0-.5.3-.6.5-1.5,6.5-2.9,13-4.4,19.8l-.7,3.4Z"/>
  <path class="st0" d="M81.6,26.6c11.4,0,22.7,0,34.1.1,11.3,0,22.6,1,33.3,5.4,10.5,4.3,18.3,11.1,19.4,23.2,2,20.2-8.9,37-28,43.9-1.9.7-3.8,1.3-5.9,2h0c.5.5.7.8,1,.9,10.2,3,14.3,10.3,14.4,20.3,0,8.5-.2,17-.3,25.4,0,1.9.4,3.8.6,6.1h-53.4c-.1-2.7-.4-5.4-.3-8.2.1-5.3.5-10.5.7-15.8.4-7.2-2.8-11-9.9-11.4-2.3-.1-4.7-.2-7-.2-2.3,0-4.6,0-6.8,0s-.8,0-1.2,0h-4.2c-2.6,11.8-5.1,23.6-7.7,35.6H6.6c9.1-42.5,18.1-84.9,27.1-127.4h3.4c14.8,0,29.6,0,44.5,0M74,80.5h0,0s0,0,0,0c5.3,0,10.4.2,15.5.2s6.3,0,9.4-.4c10.1-1,14.1-5.5,15.9-15.7,1.1-6.6-1.4-10.7-8.1-11.2-8.2-.6-16.4-.5-24.7-.6-.8,0-2.2,1.1-2.4,1.9-2,8.5-3.8,17-5.7,25.7M81.6,22.6c-7.4,0-14.8,0-22.2,0-7.4,0-14.8,0-22.2,0h-3.4c-1.9,0-3.5,1.3-3.9,3.2C20.8,68.3,11.8,110.7,2.7,153.2c-.3,1.2,0,2.4.8,3.4.8.9,1.9,1.5,3.1,1.5h53.9c1.9,0,3.5-1.3,3.9-3.2l3.5-16.4c1.2-5.3,2.3-10.7,3.4-16h1c.4,0,.8,0,1.2,0,1.1,0,2.3,0,3.4,0,1.1,0,2.3,0,3.4,0,2.8,0,4.9,0,6.8.1,4.9.3,6.4,2.1,6.2,7.2,0,1.3-.1,2.6-.2,3.9-.2,3.9-.4,8-.5,12,0,2.1,0,4.1.2,6,0,.8.1,1.6.1,2.4,0,2.1,1.9,3.8,4,3.8h53.4c1.1,0,2.2-.5,3-1.3.8-.8,1.1-2,1-3.1,0-.8-.2-1.5-.3-2.2-.2-1.3-.3-2.4-.3-3.4,0-3.6,0-7.2.1-10.7,0-4.8.2-9.8.1-14.7,0-9.2-3.3-16.1-9.5-20.5,9-3.8,16.3-9.8,21.2-17.5,5.4-8.5,7.7-18.7,6.7-29.4-1.2-12.3-8.4-21-21.9-26.5-11.9-4.8-24.2-5.6-34.8-5.7-10,0-20.8-.1-34.1-.1h0ZM78.9,76.5c0-.3.1-.7.2-1,1.4-6.4,2.7-12.6,4.1-18.7.9,0,1.7,0,2.6,0,6.8,0,13.8,0,20.5.6,1.3.1,3.1.4,3.9,1.5.9,1.2.8,3.4.5,5-1.5,8.7-4.4,11.6-12.3,12.4-2.7.3-5.5.4-9.1.4s-4.9,0-7.5-.1c-1,0-2,0-3.1,0h0Z"/>
</svg>